{
    "asset" : {
        "generator" : "Khronos glTF Blender I/O v3.4.50",
        "version" : "2.0"
    },
    "extensionsUsed" : [
        "KHR_materials_specular",
        "KHR_materials_ior"
    ],
    "scene" : 0,
    "scenes" : [
        {
            "name" : "Scene",
            "nodes" : [
                0,
                1,
                2,
                3,
                4,
                5,
                6
            ]
        }
    ],
    "nodes" : [
        {
            "mesh" : 0,
            "name" : "DNA_RNA",
            "rotation" : [
                0.70710688829422,
                0,
                0,
                0.7071066498756409
            ]
        },
        {
            "mesh" : 1,
            "name" : "E_Protein",
            "rotation" : [
                0.70710688829422,
                0,
                0,
                0.7071066498756409
            ]
        },
        {
            "mesh" : 2,
            "name" : "EnvelopeRight",
            "rotation" : [
                0.70710688829422,
                0,
                0,
                0.7071066498756409
            ]
        },
        {
            "mesh" : 3,
            "name" : "Hemagglutinin_esterase_Dimer.017",
            "rotation" : [
                0.70710688829422,
                0,
                0,
                0.7071066498756409
            ]
        },
        {
            "mesh" : 4,
            "name" : "M_Protein",
            "rotation" : [
                0.70710688829422,
                0,
                0,
                0.7071066498756409
            ]
        },
        {
            "mesh" : 5,
            "name" : "SpikeGlycoprotein",
            "rotation" : [
                0.70710688829422,
                0,
                0,
                0.7071066498756409
            ]
        },
        {
            "mesh" : 6,
            "name" : "EnvelopeLeft",
            "rotation" : [
                0.70710688829422,
                0,
                0,
                0.7071066498756409
            ]
        }
    ],
    "materials" : [
        {
            "doubleSided" : true,
            "extensions" : {
                "KHR_materials_specular" : {
                    "specularColorFactor" : [
                        0,
                        0,
                        0
                    ]
                },
                "KHR_materials_ior" : {
                    "ior" : 1.4500000476837158
                }
            },
            "name" : "Dna",
            "pbrMetallicRoughness" : {
                "baseColorFactor" : [
                    0.20253340899944305,
                    0.41223472356796265,
                    0.8000000715255737,
                    1
                ],
                "metallicFactor" : 0
            }
        },
        {
            "doubleSided" : true,
            "extensions" : {
                "KHR_materials_specular" : {
                    "specularColorFactor" : [
                        0,
                        0,
                        0
                    ]
                },
                "KHR_materials_ior" : {
                    "ior" : 1.4500000476837158
                }
            },
            "name" : "Protein",
            "pbrMetallicRoughness" : {
                "baseColorFactor" : [
                    0.8000000715255737,
                    0.4936509132385254,
                    0.03489048033952713,
                    1
                ],
                "metallicFactor" : 0
            }
        },
        {
            "doubleSided" : true,
            "extensions" : {
                "KHR_materials_specular" : {
                    "specularColorFactor" : [
                        0,
                        0,
                        0
                    ]
                },
                "KHR_materials_ior" : {
                    "ior" : 1.4500000476837158
                }
            },
            "name" : "envelope",
            "pbrMetallicRoughness" : {
                "baseColorFactor" : [
                    0.8000000715255737,
                    0.16036394238471985,
                    0.10408687591552734,
                    1
                ],
                "metallicFactor" : 0
            }
        },
        {
            "doubleSided" : true,
            "name" : "Hemagg",
            "pbrMetallicRoughness" : {
                "baseColorFactor" : [
                    0.8000000715255737,
                    0.3481999933719635,
                    0.3070588707923889,
                    1
                ],
                "metallicFactor" : 0,
                "roughnessFactor" : 0.5
            }
        },
        {
            "doubleSided" : true,
            "name" : "Mprotien",
            "pbrMetallicRoughness" : {
                "baseColorFactor" : [
                    0.306832492351532,
                    0.8000000715255737,
                    0.3036573827266693,
                    1
                ],
                "metallicFactor" : 0,
                "roughnessFactor" : 0.5
            }
        },
        {
            "doubleSided" : true,
            "name" : "Spike",
            "pbrMetallicRoughness" : {
                "baseColorFactor" : [
                    0.8000000715255737,
                    0.10067034512758255,
                    0.10768726468086243,
                    1
                ],
                "metallicFactor" : 0,
                "roughnessFactor" : 0.5
            }
        }
    ],
    "meshes" : [
        {
            "name" : "DNA_RNA",
            "primitives" : [
                {
                    "attributes" : {
                        "POSITION" : 0,
                        "TEXCOORD_0" : 1,
                        "NORMAL" : 2
                    },
                    "indices" : 3,
                    "material" : 0
                }
            ]
        },
        {
            "name" : "E_Protein",
            "primitives" : [
                {
                    "attributes" : {
                        "POSITION" : 4,
                        "TEXCOORD_0" : 5,
                        "NORMAL" : 6
                    },
                    "indices" : 7,
                    "material" : 1
                }
            ]
        },
        {
            "name" : "Envelope",
            "primitives" : [
                {
                    "attributes" : {
                        "POSITION" : 8,
                        "TEXCOORD_0" : 9,
                        "NORMAL" : 10
                    },
                    "indices" : 11,
                    "material" : 2
                }
            ]
        },
        {
            "name" : "Hemagglutinin_esterase_Dimer.017",
            "primitives" : [
                {
                    "attributes" : {
                        "POSITION" : 12,
                        "TEXCOORD_0" : 13,
                        "NORMAL" : 14
                    },
                    "indices" : 15,
                    "material" : 3
                }
            ]
        },
        {
            "name" : "M_Protein",
            "primitives" : [
                {
                    "attributes" : {
                        "POSITION" : 16,
                        "TEXCOORD_0" : 17,
                        "NORMAL" : 18
                    },
                    "indices" : 19,
                    "material" : 4
                }
            ]
        },
        {
            "name" : "SpikeGlycoprotein",
            "primitives" : [
                {
                    "attributes" : {
                        "POSITION" : 20,
                        "TEXCOORD_0" : 21,
                        "NORMAL" : 22
                    },
                    "indices" : 23,
                    "material" : 5
                }
            ]
        },
        {
            "name" : "Envelope.001",
            "primitives" : [
                {
                    "attributes" : {
                        "POSITION" : 24,
                        "TEXCOORD_0" : 25,
                        "NORMAL" : 26
                    },
                    "indices" : 27,
                    "material" : 2
                }
            ]
        }
    ],
    "accessors" : [
        {
            "bufferView" : 0,
            "componentType" : 5126,
            "count" : 8379,
            "max" : [
                0.8938000202178955,
                0.17229999601840973,
                0.7699000239372253
            ],
            "min" : [
                -0.640999972820282,
                -0.1793999969959259,
                -0.7718999981880188
            ],
            "type" : "VEC3"
        },
        {
            "bufferView" : 1,
            "componentType" : 5126,
            "count" : 8379,
            "type" : "VEC2"
        },
        {
            "bufferView" : 2,
            "componentType" : 5126,
            "count" : 8379,
            "type" : "VEC3"
        },
        {
            "bufferView" : 3,
            "componentType" : 5123,
            "count" : 39504,
            "type" : "SCALAR"
        },
        {
            "bufferView" : 4,
            "componentType" : 5126,
            "count" : 3078,
            "max" : [
                1.0029000043869019,
                1.014799952507019,
                1.0678000450134277
            ],
            "min" : [
                -0.8313999772071838,
                -0.954200029373169,
                -1.0678000450134277
            ],
            "type" : "VEC3"
        },
        {
            "bufferView" : 5,
            "componentType" : 5126,
            "count" : 3078,
            "type" : "VEC2"
        },
        {
            "bufferView" : 6,
            "componentType" : 5126,
            "count" : 3078,
            "type" : "VEC3"
        },
        {
            "bufferView" : 7,
            "componentType" : 5123,
            "count" : 14256,
            "type" : "SCALAR"
        },
        {
            "bufferView" : 8,
            "componentType" : 5126,
            "count" : 222,
            "max" : [
                1.1181000471115112,
                -0.00430000014603138,
                1
            ],
            "min" : [
                -0.8819000124931335,
                -1.0042999982833862,
                -1
            ],
            "type" : "VEC3"
        },
        {
            "bufferView" : 9,
            "componentType" : 5126,
            "count" : 222,
            "type" : "VEC2"
        },
        {
            "bufferView" : 10,
            "componentType" : 5126,
            "count" : 222,
            "type" : "VEC3"
        },
        {
            "bufferView" : 11,
            "componentType" : 5123,
            "count" : 1080,
            "type" : "SCALAR"
        },
        {
            "bufferView" : 12,
            "componentType" : 5126,
            "count" : 2574,
            "max" : [
                1.0810999870300293,
                0.9564999938011169,
                0.9936000108718872
            ],
            "min" : [
                -0.8449000120162964,
                -0.9696999788284302,
                -0.9936000108718872
            ],
            "type" : "VEC3"
        },
        {
            "bufferView" : 13,
            "componentType" : 5126,
            "count" : 2574,
            "type" : "VEC2"
        },
        {
            "bufferView" : 14,
            "componentType" : 5126,
            "count" : 2574,
            "type" : "VEC3"
        },
        {
            "bufferView" : 15,
            "componentType" : 5123,
            "count" : 11664,
            "type" : "SCALAR"
        },
        {
            "bufferView" : 16,
            "componentType" : 5126,
            "count" : 19260,
            "max" : [
                1.1339999437332153,
                1.0094000101089478,
                1.002500057220459
            ],
            "min" : [
                -0.8978000283241272,
                -1.0224000215530396,
                -1.002500057220459
            ],
            "type" : "VEC3"
        },
        {
            "bufferView" : 17,
            "componentType" : 5126,
            "count" : 19260,
            "type" : "VEC2"
        },
        {
            "bufferView" : 18,
            "componentType" : 5126,
            "count" : 19260,
            "type" : "VEC3"
        },
        {
            "bufferView" : 19,
            "componentType" : 5123,
            "count" : 88560,
            "type" : "SCALAR"
        },
        {
            "bufferView" : 20,
            "componentType" : 5126,
            "count" : 19110,
            "max" : [
                1.3253962993621826,
                1.2014105319976807,
                1.2179054021835327
            ],
            "min" : [
                -1.090239405632019,
                -1.2142252922058105,
                -1.2179054021835327
            ],
            "type" : "VEC3"
        },
        {
            "bufferView" : 21,
            "componentType" : 5126,
            "count" : 19110,
            "type" : "VEC2"
        },
        {
            "bufferView" : 22,
            "componentType" : 5126,
            "count" : 19110,
            "type" : "VEC3"
        },
        {
            "bufferView" : 23,
            "componentType" : 5123,
            "count" : 88200,
            "type" : "SCALAR"
        },
        {
            "bufferView" : 24,
            "componentType" : 5126,
            "count" : 222,
            "max" : [
                1.1154429912567139,
                0.984828531742096,
                0.989904522895813
            ],
            "min" : [
                -0.8816784024238586,
                -0.023268580436706543,
                -1.0070785284042358
            ],
            "type" : "VEC3"
        },
        {
            "bufferView" : 25,
            "componentType" : 5126,
            "count" : 222,
            "type" : "VEC2"
        },
        {
            "bufferView" : 26,
            "componentType" : 5126,
            "count" : 222,
            "type" : "VEC3"
        },
        {
            "bufferView" : 27,
            "componentType" : 5123,
            "count" : 1080,
            "type" : "SCALAR"
        }
    ],
    "bufferViews" : [
        {
            "buffer" : 0,
            "byteLength" : 100548,
            "byteOffset" : 0,
            "target" : 34962
        },
        {
            "buffer" : 0,
            "byteLength" : 67032,
            "byteOffset" : 100548,
            "target" : 34962
        },
        {
            "buffer" : 0,
            "byteLength" : 100548,
            "byteOffset" : 167580,
            "target" : 34962
        },
        {
            "buffer" : 0,
            "byteLength" : 79008,
            "byteOffset" : 268128,
            "target" : 34963
        },
        {
            "buffer" : 0,
            "byteLength" : 36936,
            "byteOffset" : 347136,
            "target" : 34962
        },
        {
            "buffer" : 0,
            "byteLength" : 24624,
            "byteOffset" : 384072,
            "target" : 34962
        },
        {
            "buffer" : 0,
            "byteLength" : 36936,
            "byteOffset" : 408696,
            "target" : 34962
        },
        {
            "buffer" : 0,
            "byteLength" : 28512,
            "byteOffset" : 445632,
            "target" : 34963
        },
        {
            "buffer" : 0,
            "byteLength" : 2664,
            "byteOffset" : 474144,
            "target" : 34962
        },
        {
            "buffer" : 0,
            "byteLength" : 1776,
            "byteOffset" : 476808,
            "target" : 34962
        },
        {
            "buffer" : 0,
            "byteLength" : 2664,
            "byteOffset" : 478584,
            "target" : 34962
        },
        {
            "buffer" : 0,
            "byteLength" : 2160,
            "byteOffset" : 481248,
            "target" : 34963
        },
        {
            "buffer" : 0,
            "byteLength" : 30888,
            "byteOffset" : 483408,
            "target" : 34962
        },
        {
            "buffer" : 0,
            "byteLength" : 20592,
            "byteOffset" : 514296,
            "target" : 34962
        },
        {
            "buffer" : 0,
            "byteLength" : 30888,
            "byteOffset" : 534888,
            "target" : 34962
        },
        {
            "buffer" : 0,
            "byteLength" : 23328,
            "byteOffset" : 565776,
            "target" : 34963
        },
        {
            "buffer" : 0,
            "byteLength" : 231120,
            "byteOffset" : 589104,
            "target" : 34962
        },
        {
            "buffer" : 0,
            "byteLength" : 154080,
            "byteOffset" : 820224,
            "target" : 34962
        },
        {
            "buffer" : 0,
            "byteLength" : 231120,
            "byteOffset" : 974304,
            "target" : 34962
        },
        {
            "buffer" : 0,
            "byteLength" : 177120,
            "byteOffset" : 1205424,
            "target" : 34963
        },
        {
            "buffer" : 0,
            "byteLength" : 229320,
            "byteOffset" : 1382544,
            "target" : 34962
        },
        {
            "buffer" : 0,
            "byteLength" : 152880,
            "byteOffset" : 1611864,
            "target" : 34962
        },
        {
            "buffer" : 0,
            "byteLength" : 229320,
            "byteOffset" : 1764744,
            "target" : 34962
        },
        {
            "buffer" : 0,
            "byteLength" : 176400,
            "byteOffset" : 1994064,
            "target" : 34963
        },
        {
            "buffer" : 0,
            "byteLength" : 2664,
            "byteOffset" : 2170464,
            "target" : 34962
        },
        {
            "buffer" : 0,
            "byteLength" : 1776,
            "byteOffset" : 2173128,
            "target" : 34962
        },
        {
            "buffer" : 0,
            "byteLength" : 2664,
            "byteOffset" : 2174904,
            "target" : 34962
        },
        {
            "buffer" : 0,
            "byteLength" : 2160,
            "byteOffset" : 2177568,
            "target" : 34963
        }
    ],
    "buffers" : [
        {
            "byteLength" : 2179728,
            "uri" : "data:application/octet-stream;base64,"
        }
    ]
}
